<svg t="1513061425559" class="icon" style="" viewBox="0 0 1024 1024" version="1.1" xmlns="http://www.w3.org/2000/svg" p-id="7233" xmlns:xlink="http://www.w3.org/1999/xlink" width="200" height="200"><defs><style type="text/css"></style></defs><path d="M90.352941 60.235294a30.117647 30.117647 0 0 0-30.117647 30.117647v843.294118a30.117647 30.117647 0 0 0 30.117647 30.117647h843.294118a30.117647 30.117647 0 0 0 30.117647-30.117647v-843.294118a30.117647 30.117647 0 0 0-30.117647-30.117647h-843.294118z m843.294118 963.764706h-843.294118C40.538353 1024 0 983.461647 0 933.647059v-843.294118C0 40.538353 40.538353 0 90.352941 0h843.294118c49.814588 0 90.352941 40.538353 90.352941 90.352941v843.294118c0 49.814588-40.538353 90.352941-90.352941 90.352941z m-602.352941-361.411765a30.238118 30.238118 0 0 0 21.323294-51.440941L253.409882 512l99.20753-99.147294a30.238118 30.238118 0 0 0-42.646588-42.646588l-120.470589 120.470588a30.238118 30.238118 0 0 0 0 42.646588l120.470589 120.470588A30.238118 30.238118 0 0 0 331.294118 662.588235z m361.411764 0a30.238118 30.238118 0 0 0 21.323294-8.794353l120.470589-120.470588a30.238118 30.238118 0 0 0 0-42.646588l-120.470589-120.470588a30.238118 30.238118 0 0 0-42.646588 42.646588L770.590118 512l-99.20753 99.147294A30.238118 30.238118 0 0 0 692.705882 662.588235z m-301.17647 120.470589a30.117647 30.117647 0 0 0 26.925176-16.624942l240.941177-481.882353a30.117647 30.117647 0 0 0-53.850353-26.985411l-240.941177 481.882353a30.117647 30.117647 0 0 0 26.864941 43.610353z" p-id="7234" fill="#1296db"></path></svg>
