<?xml version="1.0" standalone="no"?><!DOCTYPE svg PUBLIC "-//W3C//DTD SVG 1.1//EN" "http://www.w3.org/Graphics/SVG/1.1/DTD/svg11.dtd"><svg t="1503581735322" class="icon" style="" viewBox="0 0 1024 1024" version="1.1" xmlns="http://www.w3.org/2000/svg" p-id="37619" xmlns:xlink="http://www.w3.org/1999/xlink" width="80" height="80"><defs><style type="text/css"></style></defs><path d="M217.6 512c0 19.2 12.8 32 32 32l512 0c19.2 0 32-12.8 32-32s-12.8-32-32-32l-512 0C230.4 480 217.6 492.8 217.6 512z" p-id="37620" fill="#1296db"></path><path d="M928 313.6c0 0 0-6.4 0-6.4 0 0 0-6.4-6.4-6.4 0 0 0 0 0-6.4l-243.2-256c0 0 0 0 0 0 0 0-6.4-6.4-6.4-6.4 0 0 0 0-6.4 0 0 0 0 0-6.4 0 0 0-6.4 0-6.4 0 0 0 0 0 0 0L192 32C140.8 32 96 76.8 96 128l0 768c0 51.2 44.8 96 96 96l640 0c51.2 0 96-44.8 96-96L928 313.6C928 320 928 320 928 313.6zM691.2 147.2l134.4 140.8-102.4 0c-19.2 0-32-12.8-32-32L691.2 147.2zM864 896c0 19.2-12.8 32-32 32L192 928c-19.2 0-32-12.8-32-32L160 128c0-19.2 12.8-32 32-32l435.2 0L627.2 256c0 51.2 44.8 96 96 96l147.2 0L870.4 896z" p-id="37621" fill="#1296db"></path><path d="M249.6 364.8l294.4 0C563.2 364.8 576 352 576 332.8S563.2 300.8 544 300.8L249.6 300.8c-19.2 0-32 12.8-32 32S230.4 364.8 249.6 364.8z" p-id="37622" fill="#1296db"></path><path d="M761.6 659.2l-512 0c-19.2 0-32 12.8-32 32s12.8 32 32 32l512 0c19.2 0 32-12.8 32-32S780.8 659.2 761.6 659.2z" p-id="37623" fill="#1296db"></path></svg>