<?xml version="1.0" standalone="no"?><!DOCTYPE svg PUBLIC "-//W3C//DTD SVG 1.1//EN" "http://www.w3.org/Graphics/SVG/1.1/DTD/svg11.dtd"><svg t="1503581748649" class="icon" style="" viewBox="0 0 1024 1024" version="1.1" xmlns="http://www.w3.org/2000/svg" p-id="38349" xmlns:xlink="http://www.w3.org/1999/xlink" width="80" height="80"><defs><style type="text/css"></style></defs><path d="M511.2 573.3h174.9c7.7 0 14.2 4.6 14.6 12 0.6 13.3 0.3 26.6-0.3 39.9-0.3 6.1-7.1 11-13.3 11H335.9c-6.2 0-13.2-4.8-13.5-10.9-0.7-13.4-0.8-26.9-0.2-40.4 0.3-7.1 6.9-11.7 14.3-11.7 58.1 0.1 116.4 0.1 174.7 0.1z m-0.2-64.1H335.7c-6 0-13-4.5-13.3-10.4-0.7-13.9-0.8-27.9-0.1-41.8 0.3-6.4 7.3-10.7 14.2-10.7h350.2c6.8 0 13.6 4.8 13.9 11.6 0.8 12.8 0.9 25.6 0.2 38.4-0.4 8.3-7 12.9-15.4 12.9H511z m0.5 191.1h174.3c8.4 0 14.8 5.1 15.2 13.6 0.6 11.6 0.6 23.3-0.1 34.9-0.6 9.4-6.9 14.3-16.2 14.3H336.6c-7.1 0-14.3-5.1-14.6-12.2-0.7-13-0.6-25.9 0-38.9 0.4-7.3 7-11.9 14.7-11.9l174.8 0.2z m379.7 213.5v-568c-0.1-9.1-0.2-14.8-0.2-15.2-0.4-14.3-4.8-27.7-10.6-40.4-5.3-11.6-11.5-22.9-20.7-32.1-52.5-52.7-105.1-105.4-157.9-157.9-8.2-8.1-18.2-14.2-28.9-18.9-6.9-3.1-13.7-6.4-20.9-8.7-6.2-2-12.9-3.8-19.4-3.8-153-0.2-306.1-0.1-459.1 0.2-6.9 0-14.3 3.8-20.4 7.7-8.2 5.1-16.2 11.7-19.8 31.8-0.2 1.3-0.7 62.5-1 121.7v680.5c1.3 15.4 8.1 28.1 21.2 37.3 6.5 4.5 14 7.6 22.6 7.6 224.3-0.1 448.6-0.1 672.9-0.1 9 0 16.6-3.8 23.5-9.1 7.1-5.5 13.6-12 16.3-20.9 1.1-3.8 2-7.6 2.6-11.6h-0.2zM647.8 138.2c6.1 4 12.2 8.1 17.3 13.1 48.4 48.1 96.6 96.5 144.7 145 6 6.1 10.1 14.2 14.6 21.6 1.8 3-0.5 4.6-3.6 4.6-5 0-10-0.1-15-0.1H647c-7.4 0-8.1-0.7-8.1-7.9V143.1c0.1-6.5 3.4-8.5 8.9-4.9z m174.9 755.5c-15.3-0.2-30.6-0.1-46-0.1H204.1c-8.6 0-8.8-0.2-8.8-8.6V512 137.5c0-6.7 0.6-7.3 7.5-7.3h365.3c7.5 0 7.5 0.2 7.5 9.1-0.1 53.7-0.1 107.3 0 161 0 9.5 0.2 19 0 28.5-0.2 10.6 1.3 20.9 6 30.5 3.8 7.9 10.3 13.8 17.7 18.5 8.8 5.6 18.6 6.6 28.9 6.6 64.3-0.3 128.6-0.1 192.9-0.1 7.9 0 8.2 0.3 8.2 8.1v491.4c0 1.2-0.1 2.3 0 3.5 0.3 4.7-1.9 6.4-6.6 6.4z" p-id="38350" fill="#1296db"></path></svg>