<?xml version="1.0" standalone="no"?><!DOCTYPE svg PUBLIC "-//W3C//DTD SVG 1.1//EN" "http://www.w3.org/Graphics/SVG/1.1/DTD/svg11.dtd"><svg t="1503581615494" class="icon" style="" viewBox="0 0 1024 1024" version="1.1" xmlns="http://www.w3.org/2000/svg" p-id="36803" xmlns:xlink="http://www.w3.org/1999/xlink" width="80" height="80"><defs><style type="text/css"></style></defs><path d="M875.008 302.016L596.992 21.024q-6.016-6.016-15.008-11.008-2.016-2.016-4-2.016-0.992-0.992-3.008-2.016-14.016-6.016-28.992-6.016H199.968q-30.016 0-51.008 20.992t-20.992 51.008v880q0 30.016 20.992 51.008t51.008 20.992h624q30.016 0 51.008-20.992t20.992-51.008v-600q0-28.992-20.992-50.016zM784 312h-200V109.984z m40 640H200V72H512v240q0 30.016 20.992 51.008T584 384h240v568z" fill="#1296db" p-id="36804"></path></svg>