<?xml version="1.0" standalone="no"?><!DOCTYPE svg PUBLIC "-//W3C//DTD SVG 1.1//EN" "http://www.w3.org/Graphics/SVG/1.1/DTD/svg11.dtd"><svg t="1503580333074" class="icon" style="" viewBox="0 0 1024 1024" version="1.1" xmlns="http://www.w3.org/2000/svg" p-id="34546" xmlns:xlink="http://www.w3.org/1999/xlink" width="80" height="80"><defs><style type="text/css"></style></defs><path d="M863.232 790.528 863.232 790.528 726.016 927.744l0 0L670.72 983.04 150.528 983.04c-30.72 0-54.272-24.576-54.272-54.272L96.256 106.496c0-30.72 24.576-54.272 54.272-54.272l711.68 0c30.72 0 54.272 24.576 54.272 54.272l0 629.76L863.232 790.528zM698.368 873.472l109.568-109.568L698.368 763.904 698.368 873.472zM863.232 106.496 150.528 106.496l0 821.248 492.544 0 0-163.84c0-30.72 24.576-54.272 54.272-54.272l163.84 0L861.184 106.496zM401.408 651.264C347.136 747.52 307.2 790.528 273.408 790.528c-6.144 0-12.288-2.048-18.432-4.096l-13.312-7.168c-8.192-5.12-9.216-15.36-8.192-23.552 5.12-26.624 36.864-59.392 83.968-88.064 5.12-3.072 29.696-16.384 30.72-17.408l14.336-7.168c13.312-23.552 28.672-51.2 45.056-83.968l2.048-4.096c15.36-31.744 33.792-66.56 47.104-101.376l5.12-12.288c-19.456-76.8-30.72-136.192-20.48-176.128 3.072-12.288 16.384-21.504 32.768-21.504l9.216 0c14.336-1.024 23.552 11.264 28.672 22.528l1.024 4.096c1.024 4.096 2.048 5.12 2.048 9.216 4.096 33.792-12.288 135.168-12.288 135.168-1.024 4.096-2.048 7.168-3.072 11.264C516.096 471.04 542.72 512 573.44 541.696c11.264 11.264 25.6 20.48 39.936 28.672 31.744-4.096 61.44-7.168 87.04-6.144 36.864 0 61.44 6.144 72.704 17.408l0 0c4.096 4.096 7.168 9.216 8.192 14.336 2.048 15.36 0 30.72-7.168 41.984-4.096 5.12-9.216 9.216-16.384 11.264-4.096 1.024-10.24 2.048-16.384 2.048-36.864 0-95.232-19.456-143.36-46.08C534.528 613.376 463.872 630.784 401.408 651.264zM332.8 683.008c-35.84 30.72-60.416 64.512-66.56 81.92 16.384-8.192 41.984-32.768 79.872-94.208C340.992 675.84 334.848 680.96 332.8 683.008zM480.256 261.12c-5.12 0-4.096 39.936-4.096 39.936 0 20.48 3.072 52.224 9.216 72.704 7.168-13.312 13.312-31.744 13.312-58.368C497.664 288.768 491.52 261.12 480.256 261.12zM549.888 570.368c-26.624-23.552-50.176-52.224-68.608-87.04-9.216 24.576-21.504 54.272-40.96 92.16-8.192 15.36-16.384 29.696-23.552 44.032l0 0c41.984-16.384 89.088-29.696 143.36-40.96C557.056 576.512 552.96 573.44 549.888 570.368zM743.424 620.544c6.144 0 15.36-1.024 19.456-3.072l0 0c3.072-2.048 3.072-12.288-16.384-17.408C726.016 593.92 719.872 593.92 700.416 593.92c-11.264 0-22.528 1.024-35.84 1.024C698.368 611.328 722.944 620.544 743.424 620.544z" fill="#e87d96" p-id="34547"></path></svg>