<?xml version="1.0" standalone="no"?><!DOCTYPE svg PUBLIC "-//W3C//DTD SVG 1.1//EN" "http://www.w3.org/Graphics/SVG/1.1/DTD/svg11.dtd"><svg t="1503580239483" class="icon" style="" viewBox="0 0 1024 1024" version="1.1" xmlns="http://www.w3.org/2000/svg" p-id="30683" xmlns:xlink="http://www.w3.org/1999/xlink" width="80" height="80"><defs><style type="text/css"></style></defs><path d="M563.2 870.4V153.6h435.2v716.8H563.2z m153.6-563.2c-71.68 0-128 56.32-128 128s56.32 128 128 128 128-56.32 128-128h-128v-128z m25.6-25.6v128h128c0-71.68-56.32-128-128-128z m153.6 358.4H588.8v51.2h307.2v-51.2z m0 102.4H588.8v51.2h307.2v-51.2zM0 153.6l537.6-153.6v998.4L0 844.8V153.6z m179.2 537.6h51.2v-153.6h28.16c71.68 0 125.44-46.08 125.44-102.4s-53.76-102.4-125.44-102.4H179.2v358.4z m153.6-256c0 28.16-28.16 51.2-71.68 51.2H230.4v-102.4h30.72c43.52 0 71.68 23.04 71.68 51.2z" fill="#DE5C2A" p-id="30684"></path></svg>