<?xml version="1.0" standalone="no"?><!DOCTYPE svg PUBLIC "-//W3C//DTD SVG 1.1//EN" "http://www.w3.org/Graphics/SVG/1.1/DTD/svg11.dtd"><svg t="1503580093782" class="icon" style="" viewBox="0 0 1024 1024" version="1.1" xmlns="http://www.w3.org/2000/svg" p-id="26039" xmlns:xlink="http://www.w3.org/1999/xlink" width="80" height="80"><defs><style type="text/css"></style></defs><path d="M563.2 870.4V153.6h435.2v716.8H563.2z m332.8-614.4H588.8v51.2h307.2v-51.2z m0 153.6H588.8v51.2h307.2v-51.2z m0 153.6H588.8v51.2h307.2v-51.2z m0 153.6H588.8v51.2h307.2v-51.2zM0 153.6l537.6-153.6v998.4L0 844.8V153.6z m179.2 537.6h51.2l51.2-238.08 51.2 238.08h46.08L460.8 332.8h-48.64L358.4 570.88 307.2 332.8h-51.2l-51.2 238.08L151.04 332.8H102.4l76.8 358.4z" fill="#0066B1" p-id="26040"></path></svg>